<svg width="37" height="31" viewBox="0 0 37 31" fill="none" xmlns="http://www.w3.org/2000/svg">
<path d="M31.3067 2.57629C28.9633 1.37535 26.4261 0.503707 23.7831 8.90982e-05C23.76 -0.000725607 23.7369 0.00405505 23.7156 0.014095C23.6943 0.024135 23.6752 0.0391905 23.6598 0.0581993C23.3426 0.697407 22.9726 1.53031 22.726 2.16952C19.9227 1.70464 17.0719 1.70464 14.2686 2.16952C14.0219 1.51094 13.6519 0.697407 13.3171 0.0581993C13.2995 0.0194594 13.2467 8.90982e-05 13.1938 8.90982e-05C10.5509 0.503707 8.03127 1.37535 5.67025 2.57629C5.65263 2.57629 5.63502 2.59566 5.6174 2.61503C0.824883 10.4986 -0.496582 18.1691 0.155341 25.7621C0.155341 25.8008 0.17296 25.8396 0.2082 25.8589C3.37972 28.4158 6.42789 29.9654 9.44083 30.992C9.49369 31.0113 9.54655 30.992 9.56417 30.9532C10.269 29.8879 10.9033 28.7644 11.4495 27.5829C11.4847 27.5054 11.4495 27.4279 11.379 27.4085C10.3747 26.9824 9.42321 26.4788 8.48938 25.8977C8.4189 25.8589 8.4189 25.7427 8.47176 25.6846C8.66557 25.5297 8.85939 25.3553 9.0532 25.2004C9.08844 25.1616 9.1413 25.1616 9.17654 25.181C15.2377 28.2221 21.7745 28.2221 27.7651 25.181C27.8004 25.1616 27.8532 25.1616 27.8885 25.2004C28.0823 25.3747 28.2761 25.5297 28.4699 25.704C28.5404 25.7621 28.5404 25.8783 28.4523 25.9171C27.5361 26.5175 26.567 27.0018 25.5627 27.4279C25.4922 27.4473 25.4746 27.5441 25.4922 27.6022C26.0561 28.7838 26.6904 29.9073 27.3775 30.9726C27.4304 30.992 27.4832 31.0113 27.5361 30.992C30.5667 29.9654 33.6148 28.4158 36.7863 25.8589C36.8216 25.8396 36.8392 25.8008 36.8392 25.7621C37.6145 16.9875 35.553 9.37513 31.3771 2.61503C31.3595 2.59566 31.3419 2.57629 31.3067 2.57629ZM12.3657 21.1327C10.5509 21.1327 9.03559 19.2925 9.03559 17.0263C9.03559 14.76 10.5156 12.9198 12.3657 12.9198C14.2333 12.9198 15.7134 14.7793 15.6958 17.0263C15.6958 19.2925 14.2157 21.1327 12.3657 21.1327ZM24.6465 21.1327C22.8317 21.1327 21.3164 19.2925 21.3164 17.0263C21.3164 14.76 22.7964 12.9198 24.6465 12.9198C26.5142 12.9198 27.9942 14.7793 27.9766 17.0263C27.9766 19.2925 26.5142 21.1327 24.6465 21.1327Z" fill="white"/>
</svg>
