<svg width="31" height="31" viewBox="0 0 31 31" fill="none" xmlns="http://www.w3.org/2000/svg">
<path d="M17.0934 0.00190705C18.2244 -0.00243315 19.3555 0.00893434 20.4862 0.036006L20.7869 0.0468556C21.1341 0.0592552 21.4766 0.0747546 21.8904 0.093354C23.5395 0.170851 24.6648 0.431243 25.6521 0.81408C26.675 1.20777 27.5368 1.74095 28.3985 2.60272C29.1865 3.37708 29.7963 4.31378 30.1856 5.34768C30.5684 6.33499 30.8288 7.4618 30.9063 9.11095C30.9249 9.52323 30.9404 9.86732 30.9528 10.2145L30.9621 10.5152C30.9896 11.6454 31.0015 12.7759 30.9978 13.9065L30.9993 15.0627V17.0932C31.0031 18.2242 30.9912 19.3553 30.9637 20.486L30.9544 20.7867C30.942 21.1339 30.9265 21.4764 30.9079 21.8903C30.8304 23.5394 30.5669 24.6647 30.1856 25.652C29.7976 26.687 29.1876 27.6244 28.3985 28.3985C27.6235 29.1864 26.6864 29.7962 25.6521 30.1856C24.6648 30.5684 23.5395 30.8288 21.8904 30.9063C21.4766 30.9249 21.1341 30.9404 20.7869 30.9528L20.4862 30.9621C19.3555 30.9897 18.2245 31.0015 17.0934 30.9978L15.9372 30.9993H13.9083C12.7773 31.0031 11.6463 30.9912 10.5156 30.9637L10.2149 30.9544C9.84693 30.941 9.47908 30.9255 9.11133 30.9079C7.46221 30.8304 6.33697 30.5669 5.34812 30.1856C4.31383 29.7971 3.37699 29.1871 2.60321 28.3985C1.81437 27.624 1.20398 26.6867 0.814603 25.652C0.431772 24.6647 0.171385 23.5394 0.0938894 21.8903C0.0766278 21.5225 0.0611285 21.1546 0.0473919 20.7867L0.0396425 20.486C0.0110675 19.3553 -0.0018499 18.2242 0.000894305 17.0932V13.9065C-0.00343147 12.776 0.00793582 11.6454 0.0349927 10.5152L0.0458421 10.2145C0.0582414 9.86732 0.0737406 9.52323 0.0923396 9.11095C0.169836 7.46025 0.430222 6.33654 0.813052 5.34768C1.20266 4.31327 1.81425 3.37683 2.60476 2.60427C3.37801 1.81496 4.31426 1.204 5.34812 0.81408C6.33697 0.431243 7.46066 0.170851 9.11133 0.093354L10.2149 0.0468556L10.5156 0.039106C11.6457 0.0105449 12.7762 -0.00237274 13.9068 0.000357213L17.0934 0.00190705ZM15.5001 7.75164C14.4733 7.73712 13.4538 7.92682 12.501 8.30973C11.5481 8.69263 10.6808 9.2611 9.94959 9.9821C9.21834 10.7031 8.63767 11.5622 8.24134 12.5096C7.845 13.457 7.6409 14.4737 7.6409 15.5006C7.6409 16.5275 7.845 17.5442 8.24134 18.4916C8.63767 19.439 9.21834 20.2981 9.94959 21.0191C10.6808 21.7401 11.5481 22.3086 12.501 22.6915C13.4538 23.0744 14.4733 23.2641 15.5001 23.2496C17.5554 23.2496 19.5266 22.4331 20.9799 20.9797C22.4332 19.5264 23.2497 17.5552 23.2497 15.4998C23.2497 13.4445 22.4332 11.4733 20.9799 10.0199C19.5266 8.56658 17.5554 7.75164 15.5001 7.75164ZM15.5001 10.8515C16.1178 10.8402 16.7315 10.952 17.3054 11.1804C17.8794 11.4089 18.4021 11.7495 18.8429 12.1822C19.2838 12.615 19.634 13.1313 19.8731 13.7009C20.1122 14.2705 20.2354 14.882 20.2355 15.4998C20.2356 16.1176 20.1126 16.7292 19.8737 17.2989C19.6348 17.8686 19.2848 18.385 18.844 18.8179C18.4033 19.2508 17.8808 19.5915 17.3069 19.8202C16.733 20.0488 16.1193 20.1608 15.5016 20.1497C14.2685 20.1497 13.0858 19.6598 12.2138 18.7878C11.3418 17.9158 10.8519 16.733 10.8519 15.4998C10.8519 14.2666 11.3418 13.0839 12.2138 12.2119C13.0858 11.3399 14.2685 10.85 15.5016 10.85L15.5001 10.8515ZM23.6372 5.42672C23.1372 5.44674 22.6643 5.65945 22.3176 6.02031C21.9709 6.38117 21.7773 6.86218 21.7773 7.36261C21.7773 7.86303 21.9709 8.34405 22.3176 8.70491C22.6643 9.06577 23.1372 9.27848 23.6372 9.29849C24.151 9.29849 24.6438 9.09437 25.0071 8.73103C25.3705 8.36769 25.5746 7.8749 25.5746 7.36106C25.5746 6.84722 25.3705 6.35442 25.0071 5.99108C24.6438 5.62774 24.151 5.42362 23.6372 5.42362V5.42672Z" fill="white"/>
</svg>
