<svg width="32" height="31" viewBox="0 0 32 31" fill="none" xmlns="http://www.w3.org/2000/svg">
<path d="M32 3.64706C30.8222 4.28529 29.5526 4.70471 28.2371 4.90529C29.5832 3.93882 30.6233 2.40706 31.1128 0.565294C29.8432 1.47706 28.4359 2.11529 26.9522 2.48C25.7438 0.911765 24.0459 0 22.1185 0C18.5239 0 15.587 3.50118 15.587 7.82294C15.587 8.44294 15.6482 9.04471 15.7553 9.61C10.3098 9.28177 5.4608 6.16353 2.23327 1.44059C1.6673 2.58941 1.34608 3.93882 1.34608 5.36118C1.34608 8.07824 2.49331 10.4853 4.26769 11.8529C3.18164 11.8529 2.17208 11.4882 1.2849 10.9412V10.9959C1.2849 14.7888 3.54876 17.9618 6.54685 18.6729C5.58429 18.987 4.57376 19.0307 3.59465 18.8006C4.01011 20.3551 4.82377 21.7153 5.92125 22.69C7.01873 23.6648 8.34485 24.205 9.71319 24.2347C7.3937 26.4237 4.51854 27.607 1.56023 27.59C1.04015 27.59 0.520077 27.5535 0 27.4806C2.90631 29.7053 6.36329 31 10.065 31C22.1185 31 28.7419 19.0741 28.7419 8.73471C28.7419 8.38824 28.7419 8.06 28.7266 7.71353C30.0115 6.61941 31.1128 5.23353 32 3.64706Z" fill="white"/>
</svg>
